Coordinates
version=1
nRows=17
nColumns=40
inDegrees=yes

Units are S.I. units (second, meters, Newtons, ...)
Angles are in degrees.

endheader
time	pelvis_tilt	pelvis_list	pelvis_rotation	pelvis_tx	pelvis_ty	pelvis_tz	hip_flexion_r	hip_adduction_r	hip_rotation_r	knee_angle_r	knee_angle_r_beta	ankle_angle_r	subtalar_angle_r	mtp_angle_r	hip_flexion_l	hip_adduction_l	hip_rotation_l	knee_angle_l	knee_angle_l_beta	ankle_angle_l	subtalar_angle_l	mtp_angle_l	lumbar_extension	lumbar_bending	lumbar_rotation	arm_flex_r	arm_add_r	arm_rot_r	elbow_flex_r	pro_sup_r	wrist_flex_r	wrist_dev_r	arm_flex_l	arm_add_l	arm_rot_l	elbow_flex_l	pro_sup_l	wrist_flex_l	wrist_dev_l
     35.44000000	     -4.85867271	     -3.03683642	      0.13836556	      0.90737249	      0.91982302	      0.39942226	      5.54854053	     -8.30413101	     -7.55518920	     36.42936514	     36.42936514	      6.94876216	     -5.13380201	    -24.01055248	     20.65628352	     -0.63982429	      1.78610564	     30.36146199	     30.36146199	     17.02000174	    -16.79498825	      9.66316141	     -7.81719718	      5.31807782	      3.75466477	     26.15233422	    -13.51264550	    -14.55529346	     32.00440922	     44.92332187	      0.00000000	      0.00000000	     10.64079682	    -11.89716454	     15.81843638	     32.61048068	     44.45081062	      0.00000000	      0.00000000
     35.46385714	     -4.68679679	     -2.98758858	     -0.38699048	      0.90665189	      0.91839092	      0.39686023	      8.56602072	     -8.75841238	     -5.97591417	     42.06838967	     42.06838967	      4.67014851	     -8.25360324	    -24.66434037	     20.48868320	     -0.45552792	      1.52528409	     31.04646726	     31.04646726	     17.55627154	    -17.26262583	      9.42974314	     -7.97809525	      5.44273502	      3.52033558	     22.41075365	    -13.20252008	    -14.55289163	     30.22473139	     44.99510121	      0.00000000	      0.00000000	     12.43610354	    -12.20714898	     15.32987612	     33.96804030	     44.55655379	      0.00000000	      0.00000000
     35.48771429	     -4.43082713	     -2.89719814	     -0.90629716	      0.90601144	      0.91706734	      0.39436803	     11.39717661	     -9.13434629	     -4.60252596	     47.38936310	     47.38936310	      2.08084544	    -11.14561816	    -24.48780809	     20.16216568	     -0.22984136	      1.23840514	     31.64558835	     31.64558835	     18.16668222	    -17.63180171	      9.34686539	     -8.21902371	      5.52671211	      3.28861750	     18.59062086	    -12.85165425	    -14.51728516	     28.44221107	     45.05506953	      0.00000000	      0.00000000	     14.29199794	    -12.64221274	     14.81936787	     35.39754306	     44.65923794	      0.00000000	      0.00000000
     35.51157143	     -4.11060819	     -2.97514448	     -1.39738996	      0.90526232	      0.91596864	      0.39221146	     13.96307357	     -9.03594508	     -3.22537915	     52.14663935	     52.14663935	     -0.48071257	    -14.37392177	    -23.10093959	     19.81109072	     -0.21052542	      0.96913744	     32.33910029	     32.33910029	     18.92655509	    -17.85295330	      9.59314451	     -8.61129933	      5.77185912	      3.40915957	     14.52328591	    -12.75534112	    -14.47739716	     26.54183340	     45.13421260	      0.00000000	      0.00000000	     16.31551588	    -12.99423039	     14.06653718	     37.54380212	     44.80358498	      0.00000000	      0.00000000
     35.53542857	     -3.86331438	     -2.93029467	     -1.87385249	      0.90439451	      0.91502954	      0.39025118	     16.58103181	     -9.03098359	     -2.14533971	     56.66137899	     56.66137899	     -1.54000944	    -15.80952228	    -18.01119770	     19.44817257	     -0.04974535	      0.72867034	     32.86258443	     32.86258443	     19.92925153	    -17.94255048	     10.58432533	     -8.93215055	      5.87915935	      3.12916675	     10.61095141	    -12.45656699	    -14.35039881	     25.19745225	     45.25998532	      0.00000000	      0.00000000	     17.86833921	    -13.63920168	     12.67960358	     40.39856724	     45.05840049	      0.00000000	      0.00000000
     35.55928571	     -3.69139249	     -2.80714368	     -2.38910875	      0.90339537	      0.91443549	      0.38866918	     18.98453717	     -9.09449115	     -1.37339781	     60.17209258	     60.17209258	     -3.06339246	    -17.58648594	    -15.56142379	     18.98650532	      0.14164826	      0.35213199	     32.98652725	     32.98652725	     20.35965922	    -18.11679549	     10.57181350	     -9.11126742	      5.89251792	      3.03180223	      6.93434672	    -12.20709955	    -14.29999279	     23.61051030	     45.31316168	      0.00000000	      0.00000000	     19.96700414	    -14.10347500	     12.03815794	     41.94083287	     45.17148473	      0.00000000	      0.00000000
     35.58314286	     -3.43172027	     -2.95081544	     -2.84296763	      0.90226956	      0.91459328	      0.38784853	     21.29420116	     -8.58241695	     -0.72681038	     63.45599476	     63.45599476	     -0.82577842	    -17.36712209	     -3.60515411	     18.38619647	     -0.00315485	      0.03748818	     33.02901205	     33.02901205	     20.88437732	    -18.10092654	     10.90883441	     -9.48848536	      6.13253545	      2.87771242	      3.05789129	    -11.98499743	    -14.10924008	     23.30422401	     45.40015411	      0.00000000	      0.00000000	     21.63768886	    -14.69243821	     10.33979971	     44.79440905	     45.44644216	      0.00000000	      0.00000000
     35.60700000	     -3.28663128	     -3.01843531	     -3.37303160	      0.90095653	      0.91524204	      0.38745888	     23.30725871	     -8.23597846	     -0.39553355	     65.31445304	     65.31445304	      0.06565489	    -18.08032935	      2.05140664	     17.71172604	     -0.11190914	     -0.38018345	     32.65825204	     32.65825204	     21.07621991	    -18.10966545	     10.89784635	     -9.71216076	      6.28366135	      2.69997593	     -0.42818386	    -11.77456679	    -13.84790753	     23.03812132	     45.46280949	      0.00000000	      0.00000000	     23.36758700	    -15.28028593	      8.91091943	     47.20387799	     45.67019335	      0.00000000	      0.00000000
     35.63085714	     -3.22278362	     -3.10365981	     -3.94796823	      0.89942190	      0.91638839	      0.38762668	     25.11501321	     -7.88725260	     -0.29052521	     66.07591011	     66.07591011	      1.17100067	    -18.51108675	      5.77147566	     16.99233157	     -0.28149460	     -0.84067912	     32.00904192	     32.00904192	     21.07351870	    -18.10934569	     10.80621307	     -9.87653413	      6.41524636	      2.54520205	     -3.64714010	    -11.57599349	    -13.51487606	     23.02031410	     45.50606242	      0.00000000	      0.00000000	     25.09141667	    -15.89939138	      7.46607145	     49.64208865	     45.88601851	      0.00000000	      0.00000000
     35.65471429	     -3.20433411	     -3.20321874	     -4.61464764	      0.89763205	      0.91811254	      0.38839293	     26.62716859	     -7.53685867	     -0.37969703	     65.60340958	     65.60340958	      1.92913098	    -18.78971213	      6.22547943	     16.18033199	     -0.51644474	     -1.39914662	     31.06698946	     31.06698946	     20.98072188	    -18.06725897	     10.94489834	     -9.99821989	      6.53535854	      2.58866953	     -6.31180421	    -11.38264161	    -13.43008398	     22.31582862	     45.52803048	      0.00000000	      0.00000000	     27.13987208	    -16.51378987	      6.65682754	     51.40545487	     46.00480937	      0.00000000	      0.00000000
     35.67857143	     -3.33204368	     -3.46069158	     -5.33801221	      0.89561213	      0.92012944	      0.38985327	     27.97341814	     -6.82427492	     -0.45373413	     64.03322536	     64.03322536	      3.18360366	    -18.78546972	      6.69621224	     15.44259273	     -0.99205173	     -2.02290253	     29.97614339	     29.97614339	     20.61211196	    -17.95867882	     10.53681559	    -10.09053081	      6.80643881	      2.34751022	     -9.00868154	    -11.22978356	    -13.25621580	     23.57031126	     45.50983259	      0.00000000	      0.00000000	     28.40608959	    -17.33442275	      4.64905380	     54.61409574	     46.25582699	      0.00000000	      0.00000000
     35.70242857	     -3.70364018	     -3.71863739	     -6.13459419	      0.89312664	      0.92198061	      0.39194796	     29.30833864	     -5.98123778	     -0.49965948	     61.43299394	     61.43299394	      4.46468828	    -18.41362620	      6.32851276	     15.02873191	     -1.53999101	     -2.70031735	     28.98013951	     28.98013951	     20.43699786	    -17.79589121	     10.77365932	     -9.83862508	      7.08470022	      1.99111860	    -10.56502257	    -11.08333414	    -13.25028781	     23.12476937	     45.51996250	      0.00000000	      0.00000000	     30.42683425	    -18.54596850	      4.04979239	     55.51310355	     46.33403579	      0.00000000	      0.00000000
     35.72628571	     -3.78315571	     -4.07925912	     -7.06371751	      0.89095193	      0.92464488	      0.39449537	     29.53936646	     -5.12606462	     -0.71280027	     57.02627314	     57.02627314	      3.56036234	    -18.10097145	     -1.16949791	     13.91785836	     -2.19010413	     -3.55275156	     27.35628015	     27.35628015	     19.64452475	    -17.66593531	      9.71895944	    -10.20118909	      7.40976970	      2.28447477	    -12.95717870	    -11.02454389	    -13.05470017	     25.27660260	     45.47044724	      0.00000000	      0.00000000	     31.36840712	    -18.88726628	      1.22941234	     60.15699083	     46.66131531	      0.00000000	      0.00000000
     35.75014286	     -4.07803871	     -4.41997807	     -8.06482035	      0.88846502	      0.92691823	      0.39766035	     29.83034990	     -4.03433630	     -0.64444044	     52.10285836	     52.10285836	      4.32234839	    -16.54064053	     -2.81486758	     13.13219984	     -2.86642625	     -4.43142629	     25.95149252	     25.95149252	     19.36836954	    -17.48261667	      9.93842815	    -10.16526369	      7.69803094	      2.52227672	    -13.99531830	    -10.91045113	    -12.89557906	     25.05430002	     45.47654899	      0.00000000	      0.00000000	     33.45089399	    -19.70343823	      0.55784906	     61.48061408	     46.75315340	      0.00000000	      0.00000000
     35.77400000	     -4.45150261	     -4.64960071	     -9.07196713	      0.88599062	      0.92874233	      0.40094476	     29.46972641	     -3.27715938	     -0.94446023	     45.59660080	     45.59660080	      2.11877613	    -14.97490732	    -12.08817856	     12.42489689	     -3.42985545	     -5.34421337	     24.51300977	     24.51300977	     18.56444165	    -17.38088760	      8.80213224	    -10.13950879	      7.95287667	      2.34898786	    -15.01492186	    -10.98595736	    -12.42454056	     26.42455640	     45.47483034	      0.00000000	      0.00000000	     34.58432332	    -20.65481627	     -1.56626975	     64.41538075	     47.00453410	      0.00000000	      0.00000000
     35.79785714	     -4.94461416	     -4.91870875	    -10.08275266	      0.88355433	      0.93006183	      0.40474315	     29.07208392	     -2.28457952	     -1.08894962	     39.19553351	     39.19553351	      2.42312459	    -11.09540083	    -11.91470949	     11.98989177	     -4.10150857	     -6.28409737	     23.44114618	     23.44114618	     18.39863960	    -17.08258770	      8.96784864	     -9.89759677	      8.25512421	      2.58443744	    -15.31639464	    -10.78749643	    -12.36022545	     26.43839774	     45.47531243	      0.00000000	      0.00000000	     36.53922036	    -21.49553200	     -2.01740817	     65.45486765	     47.06874742	      0.00000000	      0.00000000
     35.82171429	     -5.05292437	     -4.72094980	    -11.05769469	      0.88171804	      0.93106314	      0.40838081	     28.11479314	     -2.23573096	     -2.11787290	     32.81243723	     32.81243723	      2.67618636	     -4.42792338	    -11.33684633	     11.09288159	     -4.15351266	     -7.34362755	     22.21905942	     22.21905942	     18.06630035	    -16.80672413	      8.50538217	    -10.02462239	      7.96192934	      2.90484396	    -15.61188699	    -10.65026903	    -12.38348875	     26.94116804	     45.47755345	      0.00000000	      0.00000000	     38.25115138	    -22.19761665	     -2.97820019	     67.39596986	     47.18835037	      0.00000000	      0.00000000
